<?xml version="1.0" standalone="no"?>
<!DOCTYPE svg PUBLIC "-//W3C//DTD SVG 20010904//EN"
 "http://www.w3.org/TR/2001/REC-SVG-20010904/DTD/svg10.dtd">
<svg version="1.0" xmlns="http://www.w3.org/2000/svg"
 width="245.000000pt" height="240.000000pt" viewBox="0 0 245.000000 240.000000"
 preserveAspectRatio="xMidYMid meet">

<g transform="translate(0.000000,240.000000) scale(0.100000,-0.100000)"
fill="#000000" stroke="none">
<path d="M525 2191 c-72 -18 -123 -60 -150 -123 -13 -33 -15 -130 -15 -758 0
-628 2 -725 15 -758 20 -47 50 -79 97 -103 36 -18 64 -19 631 -17 l594 3 -23
80 c-13 44 -22 81 -20 82 1 2 49 -41 107 -95 57 -53 159 -146 227 -205 l122
-109 -2 935 -3 935 -30 44 c-17 23 -51 54 -75 68 l-45 25 -700 2 c-385 1 -713
-2 -730 -6z m480 -504 c-75 -31 -165 -81 -165 -92 0 -3 17 2 38 11 220 95 468
100 677 14 61 -26 67 -27 45 -8 -14 11 -56 35 -95 53 -130 59 -127 56 -58 51
65 -4 193 -57 225 -93 60 -68 148 -387 148 -539 0 -45 -4 -55 -38 -89 -47 -48
-142 -93 -212 -100 -54 -6 -55 -5 -83 32 l-28 37 49 22 c47 21 127 82 118 91
-2 2 -31 -9 -64 -26 -98 -50 -199 -73 -315 -73 -136 1 -250 28 -356 88 l-46
25 35 -36 c19 -20 59 -49 89 -64 l53 -28 -33 -37 c-32 -37 -34 -38 -83 -32
-68 9 -164 55 -209 100 -34 34 -37 41 -37 95 0 126 57 360 118 481 21 44 38
62 82 88 65 39 130 60 185 61 38 1 36 -1 -40 -32z"/>
<path d="M1013 1346 c-92 -41 -76 -193 23 -212 45 -8 85 14 108 59 23 48 15
94 -22 130 -35 33 -69 40 -109 23z"/>
<path d="M1390 1353 c-28 -11 -59 -46 -70 -79 -23 -69 31 -144 104 -144 42 0
96 58 96 103 0 48 -15 83 -42 101 -28 18 -68 27 -88 19z"/>
</g>
</svg>
